<mxfile host="app.diagrams.net" agent="Mozilla/5.0 (Windows NT 10.0; Win64; x64) AppleWebKit/537.36 (KHTML, like Gecko) Chrome/128.0.0.0 Safari/537.36" version="24.7.10">
  <diagram id="a45cf8ec-cd66-6f27-3ac3-be6e809c9e4a" name="Page-1">
    <mxGraphModel dx="1195" dy="622" grid="1" gridSize="10" guides="1" tooltips="1" connect="1" arrows="1" fold="1" page="1" pageScale="1" pageWidth="827" pageHeight="1169" background="none" math="0" shadow="0">
      <root>
        <mxCell id="0" />
        <mxCell id="1" parent="0" />
        <mxCell id="6WnOCgbHMjgOmCCpCp16-177" value="iipaas（云）" style="rounded=1;whiteSpace=wrap;html=1;strokeColor=#123ff3;dashed=1;align=center;verticalAlign=top;fontSize=14;fontStyle=1" parent="1" vertex="1">
          <mxGeometry x="660" y="110" width="600" height="490" as="geometry" />
        </mxCell>
        <mxCell id="rGX3qO4X9z1SRiyvCJ3O-13" value="大数据平台" style="rounded=1;whiteSpace=wrap;html=1;strokeColor=#123ff3;dashed=1;align=center;verticalAlign=top;fontSize=14;fontStyle=1" vertex="1" parent="1">
          <mxGeometry x="930" y="140" width="310" height="250" as="geometry" />
        </mxCell>
        <mxCell id="rGX3qO4X9z1SRiyvCJ3O-9" value="供应商" style="rounded=1;whiteSpace=wrap;html=1;strokeColor=#31bc2f;dashed=1;align=center;verticalAlign=top;fontSize=14;fontStyle=1" vertex="1" parent="1">
          <mxGeometry x="690" y="240" width="200" height="240" as="geometry" />
        </mxCell>
        <mxCell id="rGX3qO4X9z1SRiyvCJ3O-1" value="工厂（边）" style="rounded=1;whiteSpace=wrap;html=1;strokeColor=#646264;dashed=1;align=center;verticalAlign=top;fontSize=14;fontStyle=1" vertex="1" parent="1">
          <mxGeometry x="243" y="110" width="120" height="360" as="geometry" />
        </mxCell>
        <mxCell id="6WnOCgbHMjgOmCCpCp16-173" value="基站" style="verticalAlign=top;verticalLabelPosition=bottom;labelPosition=center;align=center;html=1;outlineConnect=0;gradientDirection=north;strokeWidth=2;shape=mxgraph.networks.wireless_modem;fillColor=#dae8fc;strokeColor=#6c8ebf;" parent="1" vertex="1">
          <mxGeometry x="275" y="152" width="50" height="40" as="geometry" />
        </mxCell>
        <mxCell id="6WnOCgbHMjgOmCCpCp16-180" value="&lt;span style=&quot;color: rgb(51, 51, 51); font-family: Arial, sans-serif; text-align: start; text-wrap: wrap; background-color: rgb(255, 255, 255);&quot;&gt;&lt;font style=&quot;font-size: 12px;&quot;&gt;MQTT平台&lt;/font&gt;&lt;/span&gt;" style="verticalLabelPosition=bottom;sketch=0;aspect=fixed;html=1;verticalAlign=top;strokeColor=none;align=center;outlineConnect=0;shape=mxgraph.citrix.license_server;" parent="1" vertex="1">
          <mxGeometry x="710.81" y="144.5" width="42.44" height="55.5" as="geometry" />
        </mxCell>
        <mxCell id="6WnOCgbHMjgOmCCpCp16-175" value="" style="sketch=0;points=[[0,0,0],[0.25,0,0],[0.5,0,0],[0.75,0,0],[1,0,0],[0,1,0],[0.25,1,0],[0.5,1,0],[0.75,1,0],[1,1,0],[0,0.25,0],[0,0.5,0],[0,0.75,0],[1,0.25,0],[1,0.5,0],[1,0.75,0]];outlineConnect=0;fontColor=#232F3E;fillColor=#E7157B;strokeColor=#ffffff;dashed=0;verticalLabelPosition=bottom;verticalAlign=top;align=center;html=1;fontSize=12;fontStyle=0;aspect=fixed;shape=mxgraph.aws4.resourceIcon;resIcon=mxgraph.aws4.mq;movable=1;resizable=1;rotatable=1;deletable=1;editable=1;locked=0;connectable=1;" parent="1" vertex="1">
          <mxGeometry x="738.62" y="183" width="17" height="17" as="geometry" />
        </mxCell>
        <mxCell id="6WnOCgbHMjgOmCCpCp16-181" value="供应商服务器" style="verticalLabelPosition=bottom;sketch=0;aspect=fixed;html=1;verticalAlign=top;strokeColor=none;align=center;outlineConnect=0;shape=mxgraph.citrix.web_server;" parent="1" vertex="1">
          <mxGeometry x="827" y="340" width="51" height="60" as="geometry" />
        </mxCell>
        <mxCell id="6WnOCgbHMjgOmCCpCp16-182" value="文件服务器(minio)" style="verticalLabelPosition=bottom;sketch=0;aspect=fixed;html=1;verticalAlign=top;strokeColor=none;align=center;outlineConnect=0;shape=mxgraph.citrix.database_server;" parent="1" vertex="1">
          <mxGeometry x="980" y="290" width="53.33" height="60" as="geometry" />
        </mxCell>
        <mxCell id="6WnOCgbHMjgOmCCpCp16-183" value="mongoDB数据" style="verticalLabelPosition=bottom;sketch=0;aspect=fixed;html=1;verticalAlign=top;strokeColor=none;align=center;outlineConnect=0;shape=mxgraph.citrix.database_server;" parent="1" vertex="1">
          <mxGeometry x="1060" y="170" width="53.33" height="60" as="geometry" />
        </mxCell>
        <mxCell id="6WnOCgbHMjgOmCCpCp16-184" value="大数据服务器" style="verticalLabelPosition=bottom;sketch=0;aspect=fixed;html=1;verticalAlign=top;strokeColor=none;align=center;outlineConnect=0;shape=mxgraph.citrix.web_server;" parent="1" vertex="1">
          <mxGeometry x="1169.9999999999998" y="220" width="51" height="60" as="geometry" />
        </mxCell>
        <mxCell id="6WnOCgbHMjgOmCCpCp16-185" value="客户端" style="shape=mxgraph.signs.tech.computer;html=1;pointerEvents=1;fillColor=#f5f5f5;strokeColor=#666666;verticalLabelPosition=bottom;verticalAlign=top;align=center;fontColor=#333333;" parent="1" vertex="1">
          <mxGeometry x="1290" y="430" width="40" height="40" as="geometry" />
        </mxCell>
        <mxCell id="6WnOCgbHMjgOmCCpCp16-186" value="" style="endArrow=classic;html=1;rounded=0;" parent="1" source="6WnOCgbHMjgOmCCpCp16-185" target="rGX3qO4X9z1SRiyvCJ3O-22" edge="1">
          <mxGeometry width="50" height="50" relative="1" as="geometry">
            <mxPoint x="710" y="300" as="sourcePoint" />
            <mxPoint x="760" y="250" as="targetPoint" />
          </mxGeometry>
        </mxCell>
        <mxCell id="6WnOCgbHMjgOmCCpCp16-188" value="查询/下发指令" style="edgeLabel;html=1;align=center;verticalAlign=middle;resizable=0;points=[];" parent="6WnOCgbHMjgOmCCpCp16-186" vertex="1" connectable="0">
          <mxGeometry x="-0.2345" relative="1" as="geometry">
            <mxPoint as="offset" />
          </mxGeometry>
        </mxCell>
        <mxCell id="6WnOCgbHMjgOmCCpCp16-193" value="" style="endArrow=classic;html=1;rounded=0;" parent="1" source="6WnOCgbHMjgOmCCpCp16-183" target="6WnOCgbHMjgOmCCpCp16-184" edge="1">
          <mxGeometry width="50" height="50" relative="1" as="geometry">
            <mxPoint x="1390.8333333333333" y="310" as="sourcePoint" />
            <mxPoint x="1113" y="360" as="targetPoint" />
          </mxGeometry>
        </mxCell>
        <mxCell id="rGX3qO4X9z1SRiyvCJ3O-17" value="读取指标" style="edgeLabel;html=1;align=center;verticalAlign=middle;resizable=0;points=[];" vertex="1" connectable="0" parent="6WnOCgbHMjgOmCCpCp16-193">
          <mxGeometry x="0.0469" y="3" relative="1" as="geometry">
            <mxPoint as="offset" />
          </mxGeometry>
        </mxCell>
        <mxCell id="6WnOCgbHMjgOmCCpCp16-196" value="" style="endArrow=classic;html=1;rounded=0;exitX=0.85;exitY=0.375;exitDx=0;exitDy=0;exitPerimeter=0;" parent="1" source="rGX3qO4X9z1SRiyvCJ3O-9" edge="1">
          <mxGeometry width="50" height="50" relative="1" as="geometry">
            <mxPoint x="752.78" y="280" as="sourcePoint" />
            <mxPoint x="790" y="200" as="targetPoint" />
          </mxGeometry>
        </mxCell>
        <mxCell id="6WnOCgbHMjgOmCCpCp16-198" value="解密后数据(指标和波形)" style="edgeLabel;html=1;align=center;verticalAlign=middle;resizable=0;points=[];" parent="6WnOCgbHMjgOmCCpCp16-196" vertex="1" connectable="0">
          <mxGeometry x="-0.1672" y="-3" relative="1" as="geometry">
            <mxPoint x="56" y="-5" as="offset" />
          </mxGeometry>
        </mxCell>
        <mxCell id="6WnOCgbHMjgOmCCpCp16-202" value="" style="endArrow=classic;html=1;rounded=0;" parent="1" edge="1">
          <mxGeometry width="50" height="50" relative="1" as="geometry">
            <mxPoint x="370" y="169" as="sourcePoint" />
            <mxPoint x="430" y="170" as="targetPoint" />
          </mxGeometry>
        </mxCell>
        <mxCell id="6WnOCgbHMjgOmCCpCp16-203" value="上报" style="edgeLabel;html=1;align=center;verticalAlign=middle;resizable=0;points=[];" parent="6WnOCgbHMjgOmCCpCp16-202" vertex="1" connectable="0">
          <mxGeometry x="-0.0223" y="-2" relative="1" as="geometry">
            <mxPoint x="-3" y="-13" as="offset" />
          </mxGeometry>
        </mxCell>
        <mxCell id="6WnOCgbHMjgOmCCpCp16-204" value="" style="endArrow=classic;html=1;rounded=0;" parent="1" source="6WnOCgbHMjgOmCCpCp16-182" target="6WnOCgbHMjgOmCCpCp16-184" edge="1">
          <mxGeometry width="50" height="50" relative="1" as="geometry">
            <mxPoint x="772" y="311" as="sourcePoint" />
            <mxPoint x="897" y="269" as="targetPoint" />
          </mxGeometry>
        </mxCell>
        <mxCell id="6WnOCgbHMjgOmCCpCp16-205" value="读取波形文件" style="edgeLabel;html=1;align=center;verticalAlign=middle;resizable=0;points=[];" parent="6WnOCgbHMjgOmCCpCp16-204" vertex="1" connectable="0">
          <mxGeometry x="-0.0223" y="-2" relative="1" as="geometry">
            <mxPoint as="offset" />
          </mxGeometry>
        </mxCell>
        <mxCell id="6WnOCgbHMjgOmCCpCp16-206" value="公网代理" style="aspect=fixed;sketch=0;html=1;dashed=0;whitespace=wrap;verticalLabelPosition=bottom;verticalAlign=top;fillColor=#2875E2;strokeColor=#ffffff;points=[[0.005,0.63,0],[0.1,0.2,0],[0.9,0.2,0],[0.5,0,0],[0.995,0.63,0],[0.72,0.99,0],[0.5,1,0],[0.28,0.99,0]];shape=mxgraph.kubernetes.icon2;prIcon=k_proxy" parent="1" vertex="1">
          <mxGeometry x="440" y="152" width="35.42" height="34" as="geometry" />
        </mxCell>
        <mxCell id="6WnOCgbHMjgOmCCpCp16-207" value="负载均衡&lt;div&gt;iicloud.sinochem.com&lt;/div&gt;" style="sketch=0;outlineConnect=0;fontColor=#232F3E;gradientColor=none;fillColor=#8C4FFF;strokeColor=none;dashed=0;verticalLabelPosition=bottom;verticalAlign=top;align=center;html=1;fontSize=12;fontStyle=0;aspect=fixed;pointerEvents=1;shape=mxgraph.aws4.gateway_load_balancer;" parent="1" vertex="1">
          <mxGeometry x="556" y="158" width="30" height="30" as="geometry" />
        </mxCell>
        <mxCell id="rGX3qO4X9z1SRiyvCJ3O-2" value="传感器" style="outlineConnect=0;dashed=0;verticalLabelPosition=bottom;verticalAlign=top;align=center;html=1;shape=mxgraph.aws3.sensor;fillColor=#5294CF;gradientColor=none;" vertex="1" parent="1">
          <mxGeometry x="275" y="270" width="54" height="50" as="geometry" />
        </mxCell>
        <mxCell id="rGX3qO4X9z1SRiyvCJ3O-3" value="" style="endArrow=classic;html=1;rounded=0;" edge="1" parent="1">
          <mxGeometry width="50" height="50" relative="1" as="geometry">
            <mxPoint x="430" y="187" as="sourcePoint" />
            <mxPoint x="370" y="187" as="targetPoint" />
          </mxGeometry>
        </mxCell>
        <mxCell id="rGX3qO4X9z1SRiyvCJ3O-4" value="下发" style="edgeLabel;html=1;align=center;verticalAlign=middle;resizable=0;points=[];" vertex="1" connectable="0" parent="rGX3qO4X9z1SRiyvCJ3O-3">
          <mxGeometry x="-0.0223" y="-2" relative="1" as="geometry">
            <mxPoint x="-3" y="9" as="offset" />
          </mxGeometry>
        </mxCell>
        <mxCell id="rGX3qO4X9z1SRiyvCJ3O-6" value="" style="endArrow=classic;startArrow=classic;html=1;rounded=0;strokeColor=default;exitX=0.995;exitY=0.63;exitDx=0;exitDy=0;exitPerimeter=0;" edge="1" parent="1" source="6WnOCgbHMjgOmCCpCp16-206" target="6WnOCgbHMjgOmCCpCp16-207">
          <mxGeometry width="50" height="50" relative="1" as="geometry">
            <mxPoint x="480" y="160" as="sourcePoint" />
            <mxPoint x="730" y="360" as="targetPoint" />
          </mxGeometry>
        </mxCell>
        <mxCell id="rGX3qO4X9z1SRiyvCJ3O-7" value="" style="endArrow=classic;startArrow=classic;html=1;rounded=0;strokeColor=default;" edge="1" parent="1" source="6WnOCgbHMjgOmCCpCp16-207" target="6WnOCgbHMjgOmCCpCp16-180">
          <mxGeometry width="50" height="50" relative="1" as="geometry">
            <mxPoint x="590" y="180" as="sourcePoint" />
            <mxPoint x="566" y="183" as="targetPoint" />
          </mxGeometry>
        </mxCell>
        <mxCell id="rGX3qO4X9z1SRiyvCJ3O-8" value="MQTT" style="edgeLabel;html=1;align=center;verticalAlign=middle;resizable=0;points=[];" vertex="1" connectable="0" parent="rGX3qO4X9z1SRiyvCJ3O-7">
          <mxGeometry x="-0.2952" y="-3" relative="1" as="geometry">
            <mxPoint y="-18" as="offset" />
          </mxGeometry>
        </mxCell>
        <mxCell id="rGX3qO4X9z1SRiyvCJ3O-12" value="供应商数据存储" style="verticalLabelPosition=bottom;sketch=0;aspect=fixed;html=1;verticalAlign=top;strokeColor=none;align=center;outlineConnect=0;shape=mxgraph.citrix.database_server;" vertex="1" parent="1">
          <mxGeometry x="710.8100000000002" y="380" width="53.33" height="60" as="geometry" />
        </mxCell>
        <mxCell id="rGX3qO4X9z1SRiyvCJ3O-14" value="" style="endArrow=classic;startArrow=classic;html=1;rounded=0;strokeColor=default;" edge="1" parent="1" source="rGX3qO4X9z1SRiyvCJ3O-12" target="6WnOCgbHMjgOmCCpCp16-181">
          <mxGeometry width="50" height="50" relative="1" as="geometry">
            <mxPoint x="485" y="183" as="sourcePoint" />
            <mxPoint x="566" y="183" as="targetPoint" />
          </mxGeometry>
        </mxCell>
        <mxCell id="rGX3qO4X9z1SRiyvCJ3O-15" value="存储和读取" style="edgeLabel;html=1;align=center;verticalAlign=middle;resizable=0;points=[];" vertex="1" connectable="0" parent="rGX3qO4X9z1SRiyvCJ3O-14">
          <mxGeometry x="-0.0149" relative="1" as="geometry">
            <mxPoint as="offset" />
          </mxGeometry>
        </mxCell>
        <mxCell id="rGX3qO4X9z1SRiyvCJ3O-20" value="" style="endArrow=classic;startArrow=classic;html=1;rounded=0;strokeColor=default;" edge="1" parent="1" source="6WnOCgbHMjgOmCCpCp16-181" target="6WnOCgbHMjgOmCCpCp16-180">
          <mxGeometry width="50" height="50" relative="1" as="geometry">
            <mxPoint x="596" y="183" as="sourcePoint" />
            <mxPoint x="721" y="182" as="targetPoint" />
          </mxGeometry>
        </mxCell>
        <mxCell id="rGX3qO4X9z1SRiyvCJ3O-21" value="源数据/下发指令" style="edgeLabel;html=1;align=center;verticalAlign=middle;resizable=0;points=[];" vertex="1" connectable="0" parent="rGX3qO4X9z1SRiyvCJ3O-20">
          <mxGeometry x="-0.2952" y="-3" relative="1" as="geometry">
            <mxPoint x="-43" y="10" as="offset" />
          </mxGeometry>
        </mxCell>
        <mxCell id="rGX3qO4X9z1SRiyvCJ3O-22" value="gateway转发鉴权&lt;div&gt;iicloud.sinochem.com&lt;/div&gt;" style="sketch=0;outlineConnect=0;fontColor=#232F3E;gradientColor=none;strokeColor=#232F3E;fillColor=#ffffff;dashed=0;verticalLabelPosition=bottom;verticalAlign=top;align=center;html=1;fontSize=12;fontStyle=0;aspect=fixed;shape=mxgraph.aws4.resourceIcon;resIcon=mxgraph.aws4.nat_gateway;" vertex="1" parent="1">
          <mxGeometry x="1060" y="430" width="40" height="40" as="geometry" />
        </mxCell>
        <mxCell id="rGX3qO4X9z1SRiyvCJ3O-23" value="" style="endArrow=classic;html=1;rounded=0;" edge="1" parent="1" source="rGX3qO4X9z1SRiyvCJ3O-22" target="6WnOCgbHMjgOmCCpCp16-181">
          <mxGeometry width="50" height="50" relative="1" as="geometry">
            <mxPoint x="868" y="600" as="sourcePoint" />
            <mxPoint x="929" y="490" as="targetPoint" />
          </mxGeometry>
        </mxCell>
        <mxCell id="rGX3qO4X9z1SRiyvCJ3O-28" value="查询/下发指令" style="edgeLabel;html=1;align=center;verticalAlign=middle;resizable=0;points=[];" vertex="1" connectable="0" parent="rGX3qO4X9z1SRiyvCJ3O-23">
          <mxGeometry x="-0.0101" y="-1" relative="1" as="geometry">
            <mxPoint as="offset" />
          </mxGeometry>
        </mxCell>
        <mxCell id="rGX3qO4X9z1SRiyvCJ3O-25" value="iipaas服务器" style="verticalLabelPosition=bottom;sketch=0;aspect=fixed;html=1;verticalAlign=top;strokeColor=none;align=center;outlineConnect=0;shape=mxgraph.citrix.web_server;" vertex="1" parent="1">
          <mxGeometry x="859.9999999999998" y="510" width="51" height="60" as="geometry" />
        </mxCell>
        <mxCell id="rGX3qO4X9z1SRiyvCJ3O-26" value="" style="endArrow=classic;html=1;rounded=0;exitX=0.992;exitY=0.714;exitDx=0;exitDy=0;exitPerimeter=0;" edge="1" parent="1" source="rGX3qO4X9z1SRiyvCJ3O-9" target="rGX3qO4X9z1SRiyvCJ3O-22">
          <mxGeometry width="50" height="50" relative="1" as="geometry">
            <mxPoint x="870" y="400" as="sourcePoint" />
            <mxPoint x="640" y="560" as="targetPoint" />
          </mxGeometry>
        </mxCell>
        <mxCell id="rGX3qO4X9z1SRiyvCJ3O-27" value="获取设备数据" style="edgeLabel;html=1;align=center;verticalAlign=middle;resizable=0;points=[];" vertex="1" connectable="0" parent="rGX3qO4X9z1SRiyvCJ3O-26">
          <mxGeometry x="-0.0438" y="-1" relative="1" as="geometry">
            <mxPoint x="-12" y="14" as="offset" />
          </mxGeometry>
        </mxCell>
        <mxCell id="rGX3qO4X9z1SRiyvCJ3O-29" value="" style="endArrow=classic;html=1;rounded=0;" edge="1" parent="1" source="rGX3qO4X9z1SRiyvCJ3O-22" target="rGX3qO4X9z1SRiyvCJ3O-25">
          <mxGeometry width="50" height="50" relative="1" as="geometry">
            <mxPoint x="898" y="421" as="sourcePoint" />
            <mxPoint x="990" y="450" as="targetPoint" />
          </mxGeometry>
        </mxCell>
        <mxCell id="rGX3qO4X9z1SRiyvCJ3O-30" value="获取设备数据" style="edgeLabel;html=1;align=center;verticalAlign=middle;resizable=0;points=[];" vertex="1" connectable="0" parent="rGX3qO4X9z1SRiyvCJ3O-29">
          <mxGeometry x="-0.0438" y="-1" relative="1" as="geometry">
            <mxPoint x="-12" y="14" as="offset" />
          </mxGeometry>
        </mxCell>
        <mxCell id="rGX3qO4X9z1SRiyvCJ3O-31" value="" style="endArrow=classic;html=1;rounded=0;" edge="1" parent="1" source="6WnOCgbHMjgOmCCpCp16-180" target="rGX3qO4X9z1SRiyvCJ3O-36">
          <mxGeometry width="50" height="50" relative="1" as="geometry">
            <mxPoint x="870" y="340" as="sourcePoint" />
            <mxPoint x="790" y="200" as="targetPoint" />
          </mxGeometry>
        </mxCell>
        <mxCell id="rGX3qO4X9z1SRiyvCJ3O-32" value="订阅解密后数据（指标和波形）" style="edgeLabel;html=1;align=center;verticalAlign=middle;resizable=0;points=[];" vertex="1" connectable="0" parent="rGX3qO4X9z1SRiyvCJ3O-31">
          <mxGeometry x="-0.1672" y="-3" relative="1" as="geometry">
            <mxPoint x="21" y="-14" as="offset" />
          </mxGeometry>
        </mxCell>
        <mxCell id="rGX3qO4X9z1SRiyvCJ3O-33" value="" style="endArrow=classic;html=1;rounded=0;" edge="1" parent="1" source="6WnOCgbHMjgOmCCpCp16-181" target="6WnOCgbHMjgOmCCpCp16-182">
          <mxGeometry width="50" height="50" relative="1" as="geometry">
            <mxPoint x="870" y="340" as="sourcePoint" />
            <mxPoint x="790" y="200" as="targetPoint" />
          </mxGeometry>
        </mxCell>
        <mxCell id="rGX3qO4X9z1SRiyvCJ3O-34" value="解密后波形文件" style="edgeLabel;html=1;align=center;verticalAlign=middle;resizable=0;points=[];" vertex="1" connectable="0" parent="rGX3qO4X9z1SRiyvCJ3O-33">
          <mxGeometry x="-0.1672" y="-3" relative="1" as="geometry">
            <mxPoint x="8" y="-11" as="offset" />
          </mxGeometry>
        </mxCell>
        <mxCell id="rGX3qO4X9z1SRiyvCJ3O-36" value="接受数据服务器" style="verticalLabelPosition=bottom;sketch=0;aspect=fixed;html=1;verticalAlign=top;strokeColor=none;align=center;outlineConnect=0;shape=mxgraph.citrix.web_server;" vertex="1" parent="1">
          <mxGeometry x="959.9999999999998" y="170" width="51" height="60" as="geometry" />
        </mxCell>
        <mxCell id="rGX3qO4X9z1SRiyvCJ3O-37" value="" style="endArrow=classic;html=1;rounded=0;" edge="1" parent="1" source="rGX3qO4X9z1SRiyvCJ3O-36" target="6WnOCgbHMjgOmCCpCp16-183">
          <mxGeometry width="50" height="50" relative="1" as="geometry">
            <mxPoint x="763" y="185" as="sourcePoint" />
            <mxPoint x="970" y="207" as="targetPoint" />
          </mxGeometry>
        </mxCell>
        <mxCell id="rGX3qO4X9z1SRiyvCJ3O-38" value="存储" style="edgeLabel;html=1;align=center;verticalAlign=middle;resizable=0;points=[];" vertex="1" connectable="0" parent="rGX3qO4X9z1SRiyvCJ3O-37">
          <mxGeometry x="-0.1672" y="-3" relative="1" as="geometry">
            <mxPoint x="2" y="-15" as="offset" />
          </mxGeometry>
        </mxCell>
        <mxCell id="rGX3qO4X9z1SRiyvCJ3O-39" value="iipaas（云）" style="rounded=1;whiteSpace=wrap;html=1;strokeColor=#123ff3;dashed=1;align=center;verticalAlign=top;fontSize=14;fontStyle=1" vertex="1" parent="1">
          <mxGeometry x="660" y="690" width="600" height="490" as="geometry" />
        </mxCell>
        <mxCell id="rGX3qO4X9z1SRiyvCJ3O-40" value="大数据平台" style="rounded=1;whiteSpace=wrap;html=1;strokeColor=#123ff3;dashed=1;align=center;verticalAlign=top;fontSize=14;fontStyle=1" vertex="1" parent="1">
          <mxGeometry x="930" y="720" width="310" height="250" as="geometry" />
        </mxCell>
        <mxCell id="rGX3qO4X9z1SRiyvCJ3O-41" value="供应商" style="rounded=1;whiteSpace=wrap;html=1;strokeColor=#31bc2f;dashed=1;align=center;verticalAlign=top;fontSize=14;fontStyle=1" vertex="1" parent="1">
          <mxGeometry x="690" y="820" width="200" height="240" as="geometry" />
        </mxCell>
        <mxCell id="rGX3qO4X9z1SRiyvCJ3O-42" value="工厂（边）" style="rounded=1;whiteSpace=wrap;html=1;strokeColor=#646264;dashed=1;align=center;verticalAlign=top;fontSize=14;fontStyle=1" vertex="1" parent="1">
          <mxGeometry x="243" y="690" width="120" height="360" as="geometry" />
        </mxCell>
        <mxCell id="rGX3qO4X9z1SRiyvCJ3O-43" value="基站" style="verticalAlign=top;verticalLabelPosition=bottom;labelPosition=center;align=center;html=1;outlineConnect=0;gradientDirection=north;strokeWidth=2;shape=mxgraph.networks.wireless_modem;fillColor=#dae8fc;strokeColor=#6c8ebf;" vertex="1" parent="1">
          <mxGeometry x="275" y="732" width="50" height="40" as="geometry" />
        </mxCell>
        <mxCell id="rGX3qO4X9z1SRiyvCJ3O-46" value="供应商服务器" style="verticalLabelPosition=bottom;sketch=0;aspect=fixed;html=1;verticalAlign=top;strokeColor=none;align=center;outlineConnect=0;shape=mxgraph.citrix.web_server;" vertex="1" parent="1">
          <mxGeometry x="827" y="920" width="51" height="60" as="geometry" />
        </mxCell>
        <mxCell id="rGX3qO4X9z1SRiyvCJ3O-47" value="文件服务器(minio)" style="verticalLabelPosition=bottom;sketch=0;aspect=fixed;html=1;verticalAlign=top;strokeColor=none;align=center;outlineConnect=0;shape=mxgraph.citrix.database_server;" vertex="1" parent="1">
          <mxGeometry x="980" y="870" width="53.33" height="60" as="geometry" />
        </mxCell>
        <mxCell id="rGX3qO4X9z1SRiyvCJ3O-48" value="mongoDB数据" style="verticalLabelPosition=bottom;sketch=0;aspect=fixed;html=1;verticalAlign=top;strokeColor=none;align=center;outlineConnect=0;shape=mxgraph.citrix.database_server;" vertex="1" parent="1">
          <mxGeometry x="1060" y="750" width="53.33" height="60" as="geometry" />
        </mxCell>
        <mxCell id="rGX3qO4X9z1SRiyvCJ3O-49" value="大数据服务器" style="verticalLabelPosition=bottom;sketch=0;aspect=fixed;html=1;verticalAlign=top;strokeColor=none;align=center;outlineConnect=0;shape=mxgraph.citrix.web_server;" vertex="1" parent="1">
          <mxGeometry x="1169.9999999999998" y="800" width="51" height="60" as="geometry" />
        </mxCell>
        <mxCell id="rGX3qO4X9z1SRiyvCJ3O-50" value="客户端" style="shape=mxgraph.signs.tech.computer;html=1;pointerEvents=1;fillColor=#f5f5f5;strokeColor=#666666;verticalLabelPosition=bottom;verticalAlign=top;align=center;fontColor=#333333;" vertex="1" parent="1">
          <mxGeometry x="1290" y="1010" width="40" height="40" as="geometry" />
        </mxCell>
        <mxCell id="rGX3qO4X9z1SRiyvCJ3O-51" value="" style="endArrow=classic;html=1;rounded=0;" edge="1" parent="1" source="rGX3qO4X9z1SRiyvCJ3O-50" target="rGX3qO4X9z1SRiyvCJ3O-74">
          <mxGeometry width="50" height="50" relative="1" as="geometry">
            <mxPoint x="710" y="880" as="sourcePoint" />
            <mxPoint x="760" y="830" as="targetPoint" />
          </mxGeometry>
        </mxCell>
        <mxCell id="rGX3qO4X9z1SRiyvCJ3O-52" value="查询/下发指令" style="edgeLabel;html=1;align=center;verticalAlign=middle;resizable=0;points=[];" vertex="1" connectable="0" parent="rGX3qO4X9z1SRiyvCJ3O-51">
          <mxGeometry x="-0.2345" relative="1" as="geometry">
            <mxPoint as="offset" />
          </mxGeometry>
        </mxCell>
        <mxCell id="rGX3qO4X9z1SRiyvCJ3O-53" value="" style="endArrow=classic;html=1;rounded=0;" edge="1" parent="1" source="rGX3qO4X9z1SRiyvCJ3O-48" target="rGX3qO4X9z1SRiyvCJ3O-49">
          <mxGeometry width="50" height="50" relative="1" as="geometry">
            <mxPoint x="1390.8333333333333" y="890" as="sourcePoint" />
            <mxPoint x="1113" y="940" as="targetPoint" />
          </mxGeometry>
        </mxCell>
        <mxCell id="rGX3qO4X9z1SRiyvCJ3O-54" value="读取指标" style="edgeLabel;html=1;align=center;verticalAlign=middle;resizable=0;points=[];" vertex="1" connectable="0" parent="rGX3qO4X9z1SRiyvCJ3O-53">
          <mxGeometry x="0.0469" y="3" relative="1" as="geometry">
            <mxPoint as="offset" />
          </mxGeometry>
        </mxCell>
        <mxCell id="rGX3qO4X9z1SRiyvCJ3O-55" value="" style="endArrow=classic;html=1;rounded=0;exitX=0.85;exitY=0.375;exitDx=0;exitDy=0;exitPerimeter=0;" edge="1" parent="1" source="rGX3qO4X9z1SRiyvCJ3O-41">
          <mxGeometry width="50" height="50" relative="1" as="geometry">
            <mxPoint x="752.78" y="860" as="sourcePoint" />
            <mxPoint x="790" y="780" as="targetPoint" />
          </mxGeometry>
        </mxCell>
        <mxCell id="rGX3qO4X9z1SRiyvCJ3O-56" value="解密后数据(指标和波形)" style="edgeLabel;html=1;align=center;verticalAlign=middle;resizable=0;points=[];" vertex="1" connectable="0" parent="rGX3qO4X9z1SRiyvCJ3O-55">
          <mxGeometry x="-0.1672" y="-3" relative="1" as="geometry">
            <mxPoint x="56" y="-5" as="offset" />
          </mxGeometry>
        </mxCell>
        <mxCell id="rGX3qO4X9z1SRiyvCJ3O-57" value="" style="endArrow=classic;html=1;rounded=0;" edge="1" parent="1">
          <mxGeometry width="50" height="50" relative="1" as="geometry">
            <mxPoint x="370" y="749" as="sourcePoint" />
            <mxPoint x="430" y="750" as="targetPoint" />
          </mxGeometry>
        </mxCell>
        <mxCell id="rGX3qO4X9z1SRiyvCJ3O-58" value="上报" style="edgeLabel;html=1;align=center;verticalAlign=middle;resizable=0;points=[];" vertex="1" connectable="0" parent="rGX3qO4X9z1SRiyvCJ3O-57">
          <mxGeometry x="-0.0223" y="-2" relative="1" as="geometry">
            <mxPoint x="-3" y="-13" as="offset" />
          </mxGeometry>
        </mxCell>
        <mxCell id="rGX3qO4X9z1SRiyvCJ3O-59" value="" style="endArrow=classic;html=1;rounded=0;" edge="1" parent="1" source="rGX3qO4X9z1SRiyvCJ3O-47" target="rGX3qO4X9z1SRiyvCJ3O-49">
          <mxGeometry width="50" height="50" relative="1" as="geometry">
            <mxPoint x="772" y="891" as="sourcePoint" />
            <mxPoint x="897" y="849" as="targetPoint" />
          </mxGeometry>
        </mxCell>
        <mxCell id="rGX3qO4X9z1SRiyvCJ3O-60" value="读取波形文件" style="edgeLabel;html=1;align=center;verticalAlign=middle;resizable=0;points=[];" vertex="1" connectable="0" parent="rGX3qO4X9z1SRiyvCJ3O-59">
          <mxGeometry x="-0.0223" y="-2" relative="1" as="geometry">
            <mxPoint as="offset" />
          </mxGeometry>
        </mxCell>
        <mxCell id="rGX3qO4X9z1SRiyvCJ3O-61" value="公网代理" style="aspect=fixed;sketch=0;html=1;dashed=0;whitespace=wrap;verticalLabelPosition=bottom;verticalAlign=top;fillColor=#2875E2;strokeColor=#ffffff;points=[[0.005,0.63,0],[0.1,0.2,0],[0.9,0.2,0],[0.5,0,0],[0.995,0.63,0],[0.72,0.99,0],[0.5,1,0],[0.28,0.99,0]];shape=mxgraph.kubernetes.icon2;prIcon=k_proxy" vertex="1" parent="1">
          <mxGeometry x="440" y="732" width="35.42" height="34" as="geometry" />
        </mxCell>
        <mxCell id="rGX3qO4X9z1SRiyvCJ3O-62" value="负载均衡&lt;div&gt;iicloud.sinochem.com&lt;/div&gt;" style="sketch=0;outlineConnect=0;fontColor=#232F3E;gradientColor=none;fillColor=#8C4FFF;strokeColor=none;dashed=0;verticalLabelPosition=bottom;verticalAlign=top;align=center;html=1;fontSize=12;fontStyle=0;aspect=fixed;pointerEvents=1;shape=mxgraph.aws4.gateway_load_balancer;" vertex="1" parent="1">
          <mxGeometry x="556" y="738" width="30" height="30" as="geometry" />
        </mxCell>
        <mxCell id="rGX3qO4X9z1SRiyvCJ3O-63" value="传感器" style="outlineConnect=0;dashed=0;verticalLabelPosition=bottom;verticalAlign=top;align=center;html=1;shape=mxgraph.aws3.sensor;fillColor=#5294CF;gradientColor=none;" vertex="1" parent="1">
          <mxGeometry x="275" y="850" width="54" height="50" as="geometry" />
        </mxCell>
        <mxCell id="rGX3qO4X9z1SRiyvCJ3O-64" value="" style="endArrow=classic;html=1;rounded=0;" edge="1" parent="1">
          <mxGeometry width="50" height="50" relative="1" as="geometry">
            <mxPoint x="430" y="767" as="sourcePoint" />
            <mxPoint x="370" y="767" as="targetPoint" />
          </mxGeometry>
        </mxCell>
        <mxCell id="rGX3qO4X9z1SRiyvCJ3O-65" value="下发" style="edgeLabel;html=1;align=center;verticalAlign=middle;resizable=0;points=[];" vertex="1" connectable="0" parent="rGX3qO4X9z1SRiyvCJ3O-64">
          <mxGeometry x="-0.0223" y="-2" relative="1" as="geometry">
            <mxPoint x="-3" y="9" as="offset" />
          </mxGeometry>
        </mxCell>
        <mxCell id="rGX3qO4X9z1SRiyvCJ3O-66" value="" style="endArrow=classic;startArrow=classic;html=1;rounded=0;strokeColor=default;exitX=0.995;exitY=0.63;exitDx=0;exitDy=0;exitPerimeter=0;" edge="1" parent="1" source="rGX3qO4X9z1SRiyvCJ3O-61" target="rGX3qO4X9z1SRiyvCJ3O-62">
          <mxGeometry width="50" height="50" relative="1" as="geometry">
            <mxPoint x="480" y="740" as="sourcePoint" />
            <mxPoint x="730" y="940" as="targetPoint" />
          </mxGeometry>
        </mxCell>
        <mxCell id="rGX3qO4X9z1SRiyvCJ3O-67" value="" style="endArrow=classic;startArrow=classic;html=1;rounded=0;strokeColor=default;entryX=0;entryY=0.5;entryDx=0;entryDy=0;entryPerimeter=0;" edge="1" parent="1" source="rGX3qO4X9z1SRiyvCJ3O-62" target="rGX3qO4X9z1SRiyvCJ3O-93">
          <mxGeometry width="50" height="50" relative="1" as="geometry">
            <mxPoint x="590" y="760" as="sourcePoint" />
            <mxPoint x="710.81" y="752.3488325156804" as="targetPoint" />
          </mxGeometry>
        </mxCell>
        <mxCell id="rGX3qO4X9z1SRiyvCJ3O-68" value="MQTT" style="edgeLabel;html=1;align=center;verticalAlign=middle;resizable=0;points=[];" vertex="1" connectable="0" parent="rGX3qO4X9z1SRiyvCJ3O-67">
          <mxGeometry x="-0.2952" y="-3" relative="1" as="geometry">
            <mxPoint y="-18" as="offset" />
          </mxGeometry>
        </mxCell>
        <mxCell id="rGX3qO4X9z1SRiyvCJ3O-69" value="供应商数据存储" style="verticalLabelPosition=bottom;sketch=0;aspect=fixed;html=1;verticalAlign=top;strokeColor=none;align=center;outlineConnect=0;shape=mxgraph.citrix.database_server;" vertex="1" parent="1">
          <mxGeometry x="710.8100000000002" y="960" width="53.33" height="60" as="geometry" />
        </mxCell>
        <mxCell id="rGX3qO4X9z1SRiyvCJ3O-70" value="" style="endArrow=classic;startArrow=classic;html=1;rounded=0;strokeColor=default;" edge="1" parent="1" source="rGX3qO4X9z1SRiyvCJ3O-69" target="rGX3qO4X9z1SRiyvCJ3O-46">
          <mxGeometry width="50" height="50" relative="1" as="geometry">
            <mxPoint x="485" y="763" as="sourcePoint" />
            <mxPoint x="566" y="763" as="targetPoint" />
          </mxGeometry>
        </mxCell>
        <mxCell id="rGX3qO4X9z1SRiyvCJ3O-71" value="存储和读取" style="edgeLabel;html=1;align=center;verticalAlign=middle;resizable=0;points=[];" vertex="1" connectable="0" parent="rGX3qO4X9z1SRiyvCJ3O-70">
          <mxGeometry x="-0.0149" relative="1" as="geometry">
            <mxPoint as="offset" />
          </mxGeometry>
        </mxCell>
        <mxCell id="rGX3qO4X9z1SRiyvCJ3O-72" value="" style="endArrow=classic;startArrow=classic;html=1;rounded=0;strokeColor=default;" edge="1" parent="1" source="rGX3qO4X9z1SRiyvCJ3O-46">
          <mxGeometry width="50" height="50" relative="1" as="geometry">
            <mxPoint x="596" y="763" as="sourcePoint" />
            <mxPoint x="748.9353982300884" y="780" as="targetPoint" />
          </mxGeometry>
        </mxCell>
        <mxCell id="rGX3qO4X9z1SRiyvCJ3O-73" value="订阅源数据/下发指令" style="edgeLabel;html=1;align=center;verticalAlign=middle;resizable=0;points=[];" vertex="1" connectable="0" parent="rGX3qO4X9z1SRiyvCJ3O-72">
          <mxGeometry x="-0.2952" y="-3" relative="1" as="geometry">
            <mxPoint x="-43" y="10" as="offset" />
          </mxGeometry>
        </mxCell>
        <mxCell id="rGX3qO4X9z1SRiyvCJ3O-74" value="gateway转发鉴权&lt;div&gt;iicloud.sinochem.com&lt;/div&gt;" style="sketch=0;outlineConnect=0;fontColor=#232F3E;gradientColor=none;strokeColor=#232F3E;fillColor=#ffffff;dashed=0;verticalLabelPosition=bottom;verticalAlign=top;align=center;html=1;fontSize=12;fontStyle=0;aspect=fixed;shape=mxgraph.aws4.resourceIcon;resIcon=mxgraph.aws4.nat_gateway;" vertex="1" parent="1">
          <mxGeometry x="1060" y="1010" width="40" height="40" as="geometry" />
        </mxCell>
        <mxCell id="rGX3qO4X9z1SRiyvCJ3O-75" value="" style="endArrow=classic;html=1;rounded=0;" edge="1" parent="1" source="rGX3qO4X9z1SRiyvCJ3O-74" target="rGX3qO4X9z1SRiyvCJ3O-46">
          <mxGeometry width="50" height="50" relative="1" as="geometry">
            <mxPoint x="868" y="1180" as="sourcePoint" />
            <mxPoint x="929" y="1070" as="targetPoint" />
          </mxGeometry>
        </mxCell>
        <mxCell id="rGX3qO4X9z1SRiyvCJ3O-76" value="查询/下发指令" style="edgeLabel;html=1;align=center;verticalAlign=middle;resizable=0;points=[];" vertex="1" connectable="0" parent="rGX3qO4X9z1SRiyvCJ3O-75">
          <mxGeometry x="-0.0101" y="-1" relative="1" as="geometry">
            <mxPoint as="offset" />
          </mxGeometry>
        </mxCell>
        <mxCell id="rGX3qO4X9z1SRiyvCJ3O-77" value="iipaas服务器" style="verticalLabelPosition=bottom;sketch=0;aspect=fixed;html=1;verticalAlign=top;strokeColor=none;align=center;outlineConnect=0;shape=mxgraph.citrix.web_server;" vertex="1" parent="1">
          <mxGeometry x="859.9999999999998" y="1090" width="51" height="60" as="geometry" />
        </mxCell>
        <mxCell id="rGX3qO4X9z1SRiyvCJ3O-78" value="" style="endArrow=classic;html=1;rounded=0;exitX=0.992;exitY=0.714;exitDx=0;exitDy=0;exitPerimeter=0;" edge="1" parent="1" source="rGX3qO4X9z1SRiyvCJ3O-41" target="rGX3qO4X9z1SRiyvCJ3O-74">
          <mxGeometry width="50" height="50" relative="1" as="geometry">
            <mxPoint x="870" y="980" as="sourcePoint" />
            <mxPoint x="640" y="1140" as="targetPoint" />
          </mxGeometry>
        </mxCell>
        <mxCell id="rGX3qO4X9z1SRiyvCJ3O-79" value="获取设备数据" style="edgeLabel;html=1;align=center;verticalAlign=middle;resizable=0;points=[];" vertex="1" connectable="0" parent="rGX3qO4X9z1SRiyvCJ3O-78">
          <mxGeometry x="-0.0438" y="-1" relative="1" as="geometry">
            <mxPoint x="-12" y="14" as="offset" />
          </mxGeometry>
        </mxCell>
        <mxCell id="rGX3qO4X9z1SRiyvCJ3O-80" value="" style="endArrow=classic;html=1;rounded=0;" edge="1" parent="1" source="rGX3qO4X9z1SRiyvCJ3O-74" target="rGX3qO4X9z1SRiyvCJ3O-77">
          <mxGeometry width="50" height="50" relative="1" as="geometry">
            <mxPoint x="898" y="1001" as="sourcePoint" />
            <mxPoint x="990" y="1030" as="targetPoint" />
          </mxGeometry>
        </mxCell>
        <mxCell id="rGX3qO4X9z1SRiyvCJ3O-81" value="获取设备数据" style="edgeLabel;html=1;align=center;verticalAlign=middle;resizable=0;points=[];" vertex="1" connectable="0" parent="rGX3qO4X9z1SRiyvCJ3O-80">
          <mxGeometry x="-0.0438" y="-1" relative="1" as="geometry">
            <mxPoint x="-12" y="14" as="offset" />
          </mxGeometry>
        </mxCell>
        <mxCell id="rGX3qO4X9z1SRiyvCJ3O-82" value="" style="endArrow=classic;html=1;rounded=0;" edge="1" parent="1">
          <mxGeometry width="50" height="50" relative="1" as="geometry">
            <mxPoint x="790" y="753" as="sourcePoint" />
            <mxPoint x="960" y="776.4782608695652" as="targetPoint" />
          </mxGeometry>
        </mxCell>
        <mxCell id="rGX3qO4X9z1SRiyvCJ3O-84" value="" style="endArrow=classic;html=1;rounded=0;" edge="1" parent="1" source="rGX3qO4X9z1SRiyvCJ3O-46" target="rGX3qO4X9z1SRiyvCJ3O-47">
          <mxGeometry width="50" height="50" relative="1" as="geometry">
            <mxPoint x="870" y="920" as="sourcePoint" />
            <mxPoint x="790" y="780" as="targetPoint" />
          </mxGeometry>
        </mxCell>
        <mxCell id="rGX3qO4X9z1SRiyvCJ3O-85" value="解密后波形文件" style="edgeLabel;html=1;align=center;verticalAlign=middle;resizable=0;points=[];" vertex="1" connectable="0" parent="rGX3qO4X9z1SRiyvCJ3O-84">
          <mxGeometry x="-0.1672" y="-3" relative="1" as="geometry">
            <mxPoint x="8" y="-11" as="offset" />
          </mxGeometry>
        </mxCell>
        <mxCell id="rGX3qO4X9z1SRiyvCJ3O-87" value="" style="endArrow=classic;html=1;rounded=0;" edge="1" parent="1" target="rGX3qO4X9z1SRiyvCJ3O-48">
          <mxGeometry width="50" height="50" relative="1" as="geometry">
            <mxPoint x="1011" y="780" as="sourcePoint" />
            <mxPoint x="970" y="787" as="targetPoint" />
          </mxGeometry>
        </mxCell>
        <mxCell id="rGX3qO4X9z1SRiyvCJ3O-88" value="存储" style="edgeLabel;html=1;align=center;verticalAlign=middle;resizable=0;points=[];" vertex="1" connectable="0" parent="rGX3qO4X9z1SRiyvCJ3O-87">
          <mxGeometry x="-0.1672" y="-3" relative="1" as="geometry">
            <mxPoint x="2" y="-15" as="offset" />
          </mxGeometry>
        </mxCell>
        <mxCell id="rGX3qO4X9z1SRiyvCJ3O-89" value="" style="sketch=0;pointerEvents=1;shadow=0;dashed=0;html=1;strokeColor=none;labelPosition=center;verticalLabelPosition=bottom;verticalAlign=top;outlineConnect=0;align=center;shape=mxgraph.office.servers.virtual_web_server;fillColor=#2072B8;" vertex="1" parent="1">
          <mxGeometry x="540" y="870" width="44" height="55" as="geometry" />
        </mxCell>
        <mxCell id="rGX3qO4X9z1SRiyvCJ3O-92" value="" style="image;aspect=fixed;perimeter=ellipsePerimeter;html=1;align=center;shadow=0;dashed=0;spacingTop=3;image=img/lib/active_directory/database_server.svg;" vertex="1" parent="1">
          <mxGeometry x="540" y="950" width="49.2" height="60" as="geometry" />
        </mxCell>
        <mxCell id="rGX3qO4X9z1SRiyvCJ3O-94" value="" style="endArrow=classic;html=1;rounded=0;" edge="1" parent="1" target="rGX3qO4X9z1SRiyvCJ3O-93">
          <mxGeometry width="50" height="50" relative="1" as="geometry">
            <mxPoint x="753.2499999999998" y="754.5731743401586" as="sourcePoint" />
            <mxPoint x="960" y="777" as="targetPoint" />
          </mxGeometry>
        </mxCell>
        <mxCell id="rGX3qO4X9z1SRiyvCJ3O-95" value="订阅解密后数据（指标和波形）" style="edgeLabel;html=1;align=center;verticalAlign=middle;resizable=0;points=[];" vertex="1" connectable="0" parent="rGX3qO4X9z1SRiyvCJ3O-94">
          <mxGeometry x="-0.1672" y="-3" relative="1" as="geometry">
            <mxPoint x="123" y="1" as="offset" />
          </mxGeometry>
        </mxCell>
        <mxCell id="rGX3qO4X9z1SRiyvCJ3O-93" value="" style="outlineConnect=0;dashed=0;verticalLabelPosition=bottom;verticalAlign=top;align=center;html=1;shape=mxgraph.aws3.mqtt_protocol;fillColor=#5294CF;gradientColor=none;" vertex="1" parent="1">
          <mxGeometry x="738.62" y="729.5" width="50.93" height="47" as="geometry" />
        </mxCell>
        <mxCell id="rGX3qO4X9z1SRiyvCJ3O-96" value="接受数据服务器" style="sketch=0;pointerEvents=1;shadow=0;dashed=0;html=1;strokeColor=none;labelPosition=center;verticalLabelPosition=bottom;verticalAlign=top;outlineConnect=0;align=center;shape=mxgraph.office.servers.virtual_web_server;fillColor=#2072B8;" vertex="1" parent="1">
          <mxGeometry x="967" y="742.5" width="53" height="67.5" as="geometry" />
        </mxCell>
      </root>
    </mxGraphModel>
  </diagram>
</mxfile>
